<svg width="82" height="23" viewBox="0 0 82 23" fill="none" xmlns="http://www.w3.org/2000/svg">
<path d="M-0.000355154 22.1172V0.299005H3.95206V18.804H13.5614V22.1172H-0.000355154ZM35.638 11.2081C35.638 13.5589 35.1976 15.5724 34.3169 17.2486C33.4434 18.9176 32.2502 20.196 30.7374 21.0838C29.2317 21.9716 27.5236 22.4155 25.6131 22.4155C23.7026 22.4155 21.9909 21.9716 20.4782 21.0838C18.9725 20.1889 17.7793 18.907 16.8986 17.2379C16.025 15.5618 15.5882 13.5518 15.5882 11.2081C15.5882 8.85724 16.025 6.8473 16.8986 5.17827C17.7793 3.50213 18.9725 2.22017 20.4782 1.33239C21.9909 0.444601 23.7026 0.000709414 25.6131 0.000709414C27.5236 0.000709414 29.2317 0.444601 30.7374 1.33239C32.2502 2.22017 33.4434 3.50213 34.3169 5.17827C35.1976 6.8473 35.638 8.85724 35.638 11.2081ZM31.6642 11.2081C31.6642 9.55327 31.405 8.15767 30.8865 7.02131C30.3752 5.87784 29.665 5.01491 28.7559 4.43253C27.8468 3.84304 26.7992 3.5483 25.6131 3.5483C24.427 3.5483 23.3794 3.84304 22.4703 4.43253C21.5613 5.01491 20.8475 5.87784 20.329 7.02131C19.8176 8.15767 19.562 9.55327 19.562 11.2081C19.562 12.8629 19.8176 14.2621 20.329 15.4055C20.8475 16.5419 21.5613 17.4048 22.4703 17.9943C23.3794 18.5767 24.427 18.8679 25.6131 18.8679C26.7992 18.8679 27.8468 18.5767 28.7559 17.9943C29.665 17.4048 30.3752 16.5419 30.8865 15.4055C31.405 14.2621 31.6642 12.8629 31.6642 11.2081ZM53.9911 7.26633C53.8136 6.69105 53.5685 6.17614 53.256 5.72159C52.9506 5.25994 52.5813 4.86577 52.1481 4.53906C51.7219 4.21236 51.2319 3.96733 50.6779 3.80398C50.1239 3.63352 49.5202 3.5483 48.8668 3.5483C47.695 3.5483 46.6509 3.84304 45.7347 4.43253C44.8185 5.02202 44.0977 5.88849 43.5721 7.03196C43.0536 8.16832 42.7944 9.55327 42.7944 11.1868C42.7944 12.8345 43.0536 14.2301 43.5721 15.3736C44.0906 16.517 44.8114 17.3871 45.7347 17.9837C46.658 18.5732 47.7305 18.8679 48.9521 18.8679C50.06 18.8679 51.0188 18.6548 51.8285 18.2287C52.6452 17.8026 53.2738 17.1989 53.7141 16.4176C54.1545 15.6293 54.3746 14.706 54.3746 13.6477L55.2695 13.7862H49.3462V10.6967H58.1992V13.3175C58.1992 15.1854 57.8015 16.8011 57.006 18.1648C56.2106 19.5284 55.1168 20.5795 53.7248 21.3182C52.3327 22.0497 50.7347 22.4155 48.9308 22.4155C46.9208 22.4155 45.1559 21.9645 43.636 21.0625C42.1232 20.1534 40.9407 18.8643 40.0884 17.1953C39.2433 15.5192 38.8207 13.5305 38.8207 11.2294C38.8207 9.46804 39.0692 7.89489 39.5664 6.50994C40.0707 5.125 40.7738 3.94957 41.6758 2.98366C42.5778 2.01065 43.636 1.27202 44.8505 0.767755C46.065 0.256391 47.386 0.000709414 48.8136 0.000709414C50.021 0.000709414 51.1467 0.178266 52.1907 0.53338C53.2347 0.881391 54.1616 1.37855 54.9712 2.02486C55.788 2.67116 56.4592 3.43821 56.9847 4.32599C57.5103 5.21378 57.8548 6.19389 58.0181 7.26633H53.9911ZM81.5169 11.2081C81.5169 13.5589 81.0765 15.5724 80.1958 17.2486C79.3223 18.9176 78.1291 20.196 76.6163 21.0838C75.1106 21.9716 73.4025 22.4155 71.492 22.4155C69.5815 22.4155 67.8699 21.9716 66.3571 21.0838C64.8514 20.1889 63.6582 18.907 62.7775 17.2379C61.9039 15.5618 61.4672 13.5518 61.4672 11.2081C61.4672 8.85724 61.9039 6.8473 62.7775 5.17827C63.6582 3.50213 64.8514 2.22017 66.3571 1.33239C67.8699 0.444601 69.5815 0.000709414 71.492 0.000709414C73.4025 0.000709414 75.1106 0.444601 76.6163 1.33239C78.1291 2.22017 79.3223 3.50213 80.1958 5.17827C81.0765 6.8473 81.5169 8.85724 81.5169 11.2081ZM77.5431 11.2081C77.5431 9.55327 77.2839 8.15767 76.7654 7.02131C76.2541 5.87784 75.5439 5.01491 74.6348 4.43253C73.7257 3.84304 72.6781 3.5483 71.492 3.5483C70.3059 3.5483 69.2583 3.84304 68.3493 4.43253C67.4402 5.01491 66.7264 5.87784 66.2079 7.02131C65.6966 8.15767 65.4409 9.55327 65.4409 11.2081C65.4409 12.8629 65.6966 14.2621 66.2079 15.4055C66.7264 16.5419 67.4402 17.4048 68.3493 17.9943C69.2583 18.5767 70.3059 18.8679 71.492 18.8679C72.6781 18.8679 73.7257 18.5767 74.6348 17.9943C75.5439 17.4048 76.2541 16.5419 76.7654 15.4055C77.2839 14.2621 77.5431 12.8629 77.5431 11.2081Z" fill="#162032"/>
</svg>
