<svg width="150" height="117" viewBox="0 0 150 117" fill="none" xmlns="http://www.w3.org/2000/svg">
<path d="M88.4934 19.6687L135.364 93.4574C141.707 103.444 134.533 116.5 122.702 116.5L27.695 116.5C15.7822 116.5 8.62304 103.282 15.1319 93.3043L63.2687 19.5157C69.2302 10.3774 82.6433 10.4588 88.4934 19.6687Z" fill="#162032"/>
<path d="M66.4667 61.0557C64.7389 55.2964 69.0516 49.5 75.0645 49.5C81.0774 49.5 85.3901 55.2964 83.6623 61.0557L78.9473 76.7724C78.4329 78.487 76.8547 79.6613 75.0645 79.6613C73.2743 79.6613 71.6961 78.487 71.1817 76.7724L66.4667 61.0557Z" fill="white" stroke="white" stroke-width="2"/>
<circle cx="75.0645" cy="94.4677" r="6.03226" fill="white" stroke="white" stroke-width="2"/>
</svg>
