<svg width="50" height="50" viewBox="0 0 50 50" fill="none" xmlns="http://www.w3.org/2000/svg">
<rect width="50" height="50" fill="white"/>
<path fill-rule="evenodd" clip-rule="evenodd" d="M42.48 25.4139C42.48 24.1227 42.3641 22.8812 42.1489 21.6895H25V28.7327H34.7994C34.3773 31.0088 33.0945 32.9373 31.166 34.2283V38.797H37.0506C40.4937 35.627 42.48 30.9592 42.48 25.4139Z" fill="#4285F4"/>
<path fill-rule="evenodd" clip-rule="evenodd" d="M25 43.208C29.9162 43.208 34.0378 41.5775 37.0506 38.7967L31.1659 34.228C29.5354 35.3205 27.4497 35.966 25 35.966C20.2575 35.966 16.2434 32.7631 14.8115 28.4593H8.72827V33.177C11.7244 39.1278 17.8821 43.208 25 43.208Z" fill="#34A853"/>
<path fill-rule="evenodd" clip-rule="evenodd" d="M14.8116 28.4597C14.4474 27.3672 14.2405 26.2002 14.2405 25.0002C14.2405 23.8 14.4474 22.6331 14.8116 21.5405V16.8229H8.72833C7.49513 19.281 6.79163 22.062 6.79163 25.0002C6.79163 27.9382 7.49513 30.7192 8.72833 33.1773L14.8116 28.4597Z" fill="#FBBC05"/>
<path fill-rule="evenodd" clip-rule="evenodd" d="M25 14.0336C27.6733 14.0336 30.0734 14.9523 31.9605 16.7566L37.1829 11.5341C34.0296 8.59596 29.9078 6.79167 25 6.79167C17.8821 6.79167 11.7244 10.872 8.72827 16.8228L14.8115 21.5404C16.2434 17.2366 20.2575 14.0336 25 14.0336Z" fill="#EA4335"/>
</svg>
