<svg width="50" height="50" viewBox="0 0 50 50" fill="none" xmlns="http://www.w3.org/2000/svg">
<rect width="50" height="50" fill="#FEE500"/>
<path d="M24.9897 12C17.2453 12 10.9998 17.0193 10.9998 23.1127C10.9998 27.068 13.5979 30.5314 17.4951 32.5089L16.1761 37.4581C16.1512 37.5321 16.1474 37.6119 16.165 37.6879C16.1827 37.7642 16.2211 37.8342 16.276 37.8897C16.3561 37.9605 16.4591 37.9998 16.5658 38C16.6543 37.993 16.7383 37.9577 16.8056 37.8997L22.4816 34.055C23.3194 34.171 24.164 34.2313 25.0098 34.2356C32.7443 34.2356 38.9998 29.2163 38.9998 23.1127C38.9998 17.0092 32.7242 12 24.9897 12Z" fill="#392020"/>
</svg>
